<mxfile host="Electron" modified="2023-10-30T13:59:39.508Z" agent="Mozilla/5.0 (Windows NT 10.0; Win64; x64) AppleWebKit/537.36 (KHTML, like Gecko) draw.io/22.0.3 Chrome/114.0.5735.289 Electron/25.8.4 Safari/537.36" etag="9vHr91RS9aVUygtRRl-5" version="22.0.3" type="device">
  <diagram id="07fea595-8f29-1299-0266-81d95cde20df" name="Page-1">
    <mxGraphModel dx="-920" dy="902" grid="1" gridSize="10" guides="1" tooltips="1" connect="1" arrows="1" fold="1" page="1" pageScale="1" pageWidth="1169" pageHeight="827" background="none" math="0" shadow="0">
      <root>
        <mxCell id="0" />
        <mxCell id="1" parent="0" />
        <mxCell id="726" value="" style="whiteSpace=wrap;fillColor=#12AAB5;gradientColor=none;gradientDirection=east;strokeColor=none;html=1;fontColor=#23445d;" parent="1" vertex="1">
          <mxGeometry x="2679.5" y="654.1" width="120" height="940" as="geometry" />
        </mxCell>
        <mxCell id="727" value="" style="edgeStyle=none;html=1;fontColor=#000000;strokeWidth=3;strokeColor=#000000;" parent="1" edge="1">
          <mxGeometry width="100" height="100" relative="1" as="geometry">
            <mxPoint x="2437.5" y="1594.5" as="sourcePoint" />
            <mxPoint x="2437.5" y="594.5" as="targetPoint" />
          </mxGeometry>
        </mxCell>
        <mxCell id="728" value="" style="whiteSpace=wrap;fillColor=#F08705;gradientColor=none;gradientDirection=east;strokeColor=none;html=1;fontColor=#23445d;direction=west;" parent="1" vertex="1">
          <mxGeometry x="2496" y="702" width="120" height="890" as="geometry" />
        </mxCell>
        <mxCell id="734" value="" style="edgeStyle=none;html=1;fontColor=#000000;strokeWidth=3;strokeColor=#000000;" parent="1" edge="1">
          <mxGeometry width="100" height="100" relative="1" as="geometry">
            <mxPoint x="2437.5" y="1594.5" as="sourcePoint" />
            <mxPoint x="2880" y="1595" as="targetPoint" />
          </mxGeometry>
        </mxCell>
        <mxCell id="735" value="Machine learning technique" style="text;spacingTop=-5;html=1;fontSize=18;fontStyle=0;points=[];strokeColor=none;" parent="1" vertex="1">
          <mxGeometry x="2890" y="1582.5" width="80" height="20" as="geometry" />
        </mxCell>
        <mxCell id="736" value="Naive Bayes" style="text;spacingTop=-5;align=center;verticalAlign=middle;fontStyle=0;html=1;fontSize=18;points=[];strokeColor=none;" parent="1" vertex="1">
          <mxGeometry x="2497.5" y="1596.5" width="120" height="30" as="geometry" />
        </mxCell>
        <mxCell id="739" value="" style="whiteSpace=wrap;fillColor=#12AAB5;gradientColor=none;gradientDirection=east;strokeColor=none;html=1;fontColor=#23445d;" parent="1" vertex="1">
          <mxGeometry x="2890" y="1170" width="35.000000000000114" height="30.000000000000227" as="geometry" />
        </mxCell>
        <mxCell id="740" value="" style="whiteSpace=wrap;fillColor=#F08705;gradientColor=none;gradientDirection=east;strokeColor=none;html=1;fontColor=#23445d;" parent="1" vertex="1">
          <mxGeometry x="2889.9999999999995" y="1130" width="35.000000000000114" height="30.000000000000227" as="geometry" />
        </mxCell>
        <mxCell id="743" value="Naive Bayes" style="text;spacingTop=-5;html=1;points=[];fontSize=15;" parent="1" vertex="1">
          <mxGeometry x="2930" y="1135" width="80" height="20" as="geometry" />
        </mxCell>
        <mxCell id="744" value="Support Vector Machine" style="text;spacingTop=-5;html=1;points=[];fontSize=15;" parent="1" vertex="1">
          <mxGeometry x="2930" y="1175" width="80" height="20" as="geometry" />
        </mxCell>
        <mxCell id="745" value="Accuracy" style="text;spacingTop=-5;html=1;fontSize=18;fontStyle=0;points=[]" parent="1" vertex="1">
          <mxGeometry x="2398" y="570" width="80" height="20" as="geometry" />
        </mxCell>
        <mxCell id="746" value="89.25" style="text;spacingTop=-5;align=center;verticalAlign=bottom;fontStyle=0;html=1;fontSize=18;points=[];labelPosition=center;verticalLabelPosition=top;" parent="1" vertex="1">
          <mxGeometry x="2398" y="702" width="30" height="129.99999999999977" as="geometry" />
        </mxCell>
        <mxCell id="748" value="91.04" style="text;spacingTop=-5;align=center;verticalAlign=bottom;fontStyle=0;html=1;fontSize=18;points=[];labelPosition=center;verticalLabelPosition=top;" parent="1" vertex="1">
          <mxGeometry x="2356.5" y="654.1" width="30" height="129.99999999999977" as="geometry" />
        </mxCell>
        <mxCell id="749" value="Comparison of average accuracy rates" style="text;spacingTop=-5;align=center;verticalAlign=middle;fontSize=30;fontStyle=1;html=1;points=[]" parent="1" vertex="1">
          <mxGeometry x="2437.5" y="550.5" width="810" height="45" as="geometry" />
        </mxCell>
        <mxCell id="752" value="Support Vector Machine" style="text;spacingTop=-5;align=center;verticalAlign=middle;fontStyle=0;html=1;fontSize=18;points=[];strokeColor=none;" parent="1" vertex="1">
          <mxGeometry x="2679.5" y="1596.5" width="120" height="30" as="geometry" />
        </mxCell>
        <mxCell id="1j1w0KdPQOfPmrtIeR0J-758" value="" style="endArrow=none;dashed=1;html=1;dashPattern=1 3;strokeWidth=2;rounded=0;exitX=-0.287;exitY=-0.003;exitDx=0;exitDy=0;exitPerimeter=0;entryX=1;entryY=0;entryDx=0;entryDy=0;" parent="1" source="748" target="726" edge="1">
          <mxGeometry width="50" height="50" relative="1" as="geometry">
            <mxPoint x="2880" y="1000" as="sourcePoint" />
            <mxPoint x="2930" y="950" as="targetPoint" />
          </mxGeometry>
        </mxCell>
        <mxCell id="1j1w0KdPQOfPmrtIeR0J-759" value="" style="endArrow=none;dashed=1;html=1;dashPattern=1 3;strokeWidth=2;rounded=0;exitX=1.49;exitY=0.38;exitDx=0;exitDy=0;exitPerimeter=0;entryX=0;entryY=1;entryDx=0;entryDy=0;" parent="1" source="748" target="728" edge="1">
          <mxGeometry width="50" height="50" relative="1" as="geometry">
            <mxPoint x="2428" y="703.18" as="sourcePoint" />
            <mxPoint x="2827" y="703.18" as="targetPoint" />
          </mxGeometry>
        </mxCell>
      </root>
    </mxGraphModel>
  </diagram>
</mxfile>
